#!OML:ASF \\sashay\E\basketball\basketball\Project 1\Capture day 1\Session 1\Subject.ASF
:FULLY-SPECIFIED
:DEGREES
137
root 6.20315 13.6157 -2.68634 -174.775 3.37066 -174.364
lowerback 40.1807 -0.422815 -3.30689
upperback 12.2401 2.79959 1.31743
thorax -5.8775 2.99069 1.85293
lowerneck -5.49291 -6.37562 -12.8213
upperneck -24.7406 -0.463719 26.2552
head -5.83981 1.01115 11.2552
rclavicle -2.10712e-014 1.98785e-015
rhumerus -1.09325 -40.1005 -47.3382
rradius 85.2215
rwrist -29.9773
rhand -40.4205 69.444
rfingers 7.12502
rthumb -13.3732 39.8932
lclavicle -2.10712e-014 1.98785e-015
lhumerus -14.0616 28.866 42.0167
lradius 72.8876
lwrist 42.9107
lhand -30.0809 16.4388
lfingers 7.12502
lthumb -3.39554 46.3915
rfemur -55.1264 -35.9291 27.6386
rtibia 97.331
rfoot -11.9903 -12.1268
rtoes -7.21244
lfemur -70.6708 39.1708 -29.7558
ltibia 93.3787
lfoot 8.49429 -20.6965
ltoes -31.2686
138
root 6.59079 13.5607 -2.7344 -175.311 3.4692 -173.818
lowerback 40.9228 -0.455311 -3.08388
upperback 12.3707 2.99515 1.63373
thorax -5.98366 3.12537 1.97191
lowerneck -5.55796 -6.49365 -12.4552
upperneck -25.3339 -0.454734 26.0259
head -6.03488 1.0372 11.1267
rclavicle -6.36111e-015 1.74931e-014
rhumerus -1.86436 -39.9228 -47.2879
rradius 85.6476
rwrist -29.7907
rhand -44.5997 66.4374
rfingers 7.12502
rthumb -17.3984 37.1961
lclavicle -6.36111e-015 1.74931e-014
lhumerus -13.9892 29.3372 42.8565
lradius 73.0909
lwrist 42.9121
lhand -30.0392 16.2915
lfingers 7.12502
lthumb -3.35536 46.2448
rfemur -53.0972 -34.0293 24.3813
rtibia 95.5562
rfoot -13.072 -12.9569
rtoes -4.05374
lfemur -68.4233 38.8925 -29.0635
ltibia 91.3188
lfoot 10.0844 -21.2578
ltoes -31.0949
139
root 6.99097 13.519 -2.78766 -175.594 3.92388 -173.334
lowerback 41.2585 -0.237958 -3.15675
upperback 12.4988 3.33036 1.8997
thorax -5.97843 3.29821 2.15116
lowerneck -5.56541 -6.73574 -12.006
upperneck -26.0709 -0.507052 26.0936
head -6.26509 1.02494 11.1112
rclavicle 1.98785e-014 -1.98785e-016
rhumerus -2.63627 -39.7209 -47.3641
rradius 86.1568
rwrist -29.3445
rhand -43.5561 68.7419
rfingers 7.12502
rthumb -16.3939 39.4147
lclavicle 1.98785e-014 -1.98785e-016
lhumerus -14.0461 29.7257 43.6025
lradius 73.368
lwrist 43.1091
lhand -29.7358 16.0194
lfingers 7.12502
lthumb -3.06233 45.9772
rfemur -51.4382 -31.7694 21.3757
rtibia 93.2404
rfoot -14.0778 -13.7968
rtoes 0.308945
lfemur -65.9435 38.7811 -28.1487
ltibia 88.8312
lfoot 11.2623 -20.7295
ltoes 22.5368
140
root 7.38798 13.5063 -2.84317 -175.683 4.40715 -172.682
lowerback 41.3406 -0.0219929 -3.09258
upperback 12.5757 3.67474 2.20908
thorax -5.96049 3.45798 2.30943
lowerneck -5.63406 -6.92027 -11.3394
upperneck -26.639 -0.550121 26.0026
head -6.44855 0.995299 10.976
rclavicle -2.48481e-014 3.97569e-015
rhumerus -3.46087 -39.4629 -47.4013
rradius 86.5067
rwrist -29.1718
rhand -42.7891 68.9281
rfingers 7.12502
rthumb -15.6553 39.5415
lclavicle -2.48481e-014 3.97569e-015
lhumerus -14.2842 29.8684 44.2099
lradius 73.6336
lwrist 43.3946
lhand -29.193 15.7738
lfingers 7.12502
lthumb -2.53814 45.7384
rfemur -49.893 -29.3218 18.8736
rtibia 90.2775
rfoot -14.931 -15.2105
rtoes 3.35422
lfemur -63.749 38.7645 -26.7634
ltibia 87.0174
lfoot 0.452387 -17.3185
ltoes 24.9741
141
root 7.77294 13.4992 -2.89874 -175.653 4.77301 -171.83
lowerback 41.3357 0.0344178 -2.68039
upperback 12.6016 3.93976 2.55019
thorax -5.96631 3.57858 2.35424
lowerneck -5.6488 -6.94823 -10.5299
upperneck -27.0767 -0.460693 25.6813
head -6.6455 1.00836 10.7158
rclavicle -4.57205e-015 4.96962e-015
rhumerus -4.29266 -39.0465 -47.1806
rradius 86.6248
rwrist -29.4508
rhand -42.8405 67.949
rfingers 7.12502
rthumb -15.7048 38.5662
lclavicle -4.57205e-015 4.96962e-015
lhumerus -14.6749 29.7759 44.8542
lradius 73.9586
lwrist 43.4382
lhand -29.151 16.1229
lfingers 7.12502
lthumb -2.49758 46.088
rfemur -48.3986 -27.1064 16.8446
rtibia 86.8604
rfoot -15.6499 -16.9443
rtoes 5.52108
lfemur -61.7382 38.6937 -25.3543
ltibia 85.3967
lfoot -11.6305 -8.01577
ltoes -13.0789
